<?xml version="1.0" encoding="utf-8" ?>
<svg xmlns="http://www.w3.org/2000/svg" xmlns:xlink="http://www.w3.org/1999/xlink" width="300" height="300">
	<path fill="#FEFEFE" d="M-0 -0L300 0L300 300L-0 300L0 -0Z"/>
	<path fill="#252324" d="M151.992 89.625L152.191 89.5821C152.995 89.4712 153.831 89.3934 154.474 89.875L154.467 103.328C154.47 104.99 154.802 107.585 154.27 109.125L154.163 109.142C153.303 109.222 152.471 109.41 151.785 108.875L151.825 96.2301C151.822 94.1494 151.563 91.6469 151.992 89.625Z"/>
	<path fill="#252324" d="M179.192 89.625L179.413 89.5719C180.248 89.447 181.313 89.3535 181.961 89.875L181.959 102.73C181.957 104.801 182.181 107.103 181.802 109.125C181.055 109.327 179.942 109.373 179.21 109.125C178.76 106.085 179.059 102.681 179.054 99.597C179.049 96.3647 178.725 92.8113 179.192 89.625Z"/>
	<path fill="#252324" d="M123.038 63.0227L125.966 63.0128L125.986 76.8009C125.986 78.5798 126.317 80.9692 125.787 82.625L125.677 82.6432C124.819 82.7232 123.71 82.9292 123.061 82.375L123.038 63.0227Z"/>
	<path fill="#252324" d="M130.925 89.625C132.181 89.3738 133.65 89.5122 134.934 89.5107L142.528 89.5085C143.66 89.5087 146.005 89.2074 146.931 89.7738C146.959 90.6214 147.172 91.2733 146.625 91.9505L140.278 91.9803L140.227 102.625C140.229 104.162 140.691 108.131 139.875 109.244C139.041 109.249 138.004 109.437 137.324 108.959L137.258 91.9874C135.745 91.9933 132.003 92.4272 130.803 91.7205C130.729 90.9636 130.788 90.3646 130.925 89.625Z"/>
	<path fill="#252324" d="M161.042 89.4689C164.03 89.6471 167.109 89.5104 170.106 89.521C171.061 89.5245 172.636 89.3183 173.428 89.7817C173.463 90.515 173.625 91.1552 173.268 91.8086L163.991 91.9929L163.992 97.7818L169.973 97.8217C170.77 97.8152 171.719 97.6436 172.424 98.054L172.497 99.375C172.414 99.6473 172.295 99.8702 172.168 100.125L163.98 100.242L163.957 106.889C163.954 107.771 164.114 108.5 163.625 109.247C162.781 109.265 161.903 109.449 161.166 109.026C160.921 106.708 161.062 104.289 161.057 101.953L161.042 89.4689Z"/>
	<defs>
		<linearGradient id="gradient_0" gradientUnits="userSpaceOnUse" x1="108.03279" y1="103.10117" x2="91.487694" y2="95.391365">
			<stop offset="0" stop-color="#0B0605"/>
			<stop offset="1" stop-color="#2E2C2D"/>
		</linearGradient>
	</defs>
	<path fill="url(#gradient_0)" d="M93.5161 89.4767L102.665 89.5244C103.654 89.5296 105.346 89.3145 106.182 89.7818C106.245 90.4821 106.299 91.0832 106.125 91.7771C103.213 92.2942 99.4924 91.9473 96.4991 91.9704L96.5053 97.7871L105.212 97.875C105.599 98.5814 105.451 99.1426 105.416 99.9316C104.705 100.301 103.606 100.161 102.808 100.166L96.7596 100.28L96.489 100.875L96.4904 106.814L103.375 106.854C104.271 106.851 105.583 106.613 106.375 107.003C106.478 107.707 106.48 108.282 106.375 108.986C105.273 109.34 103.619 109.156 102.445 109.169L93.4953 109.252L93.5161 89.4767Z"/>
	<defs>
		<linearGradient id="gradient_1" gradientUnits="userSpaceOnUse" x1="202.83353" y1="103.46628" x2="186.31747" y2="94.989525">
			<stop offset="0" stop-color="#0D0706"/>
			<stop offset="1" stop-color="#2F2D2E"/>
		</linearGradient>
	</defs>
	<path fill="url(#gradient_1)" d="M188.261 89.4732L197.413 89.5167C198.392 89.5214 200.118 89.3005 200.927 89.7892C200.953 90.6154 201.164 91.2771 200.625 91.9314L191.276 91.984L191.251 97.769L199.978 97.875C200.346 98.5821 200.205 99.1607 200.173 99.9431C199.467 100.286 198.527 100.165 197.754 100.175L191.259 100.242L191.242 106.81C192.941 106.835 200.153 106.477 201.174 107.059C201.2 107.796 201.403 108.53 200.948 109.125L188.263 109.251L188.261 89.4732Z"/>
	<path fill="#252324" d="M78.4717 89.0833C79.9051 88.9744 81.4825 89.0508 82.8801 89.4098C84.535 89.8349 86.1743 91.1169 86.9957 92.619L87.1269 92.873C87.3661 93.3236 87.5643 93.7232 87.6787 94.222C87.847 94.9559 88.0962 95.5309 87.6971 96.1856C86.9103 96.2594 85.9173 96.4978 85.1976 96.125C84.3552 93.8422 83.5954 92.7242 81.4686 91.5364C80.0754 91.4783 78.2913 91.2301 77.0388 91.9337L76.875 92.0284L76.2924 92.3683C74.4299 93.5429 73.5803 95.4165 73.1463 97.508C72.6823 99.7442 73.0808 102.51 74.3713 104.427C75.3327 105.856 76.7668 106.959 78.5 107.224C80.4523 107.524 81.8236 106.955 83.3524 105.814C84.3409 104.375 84.8141 103.039 85.269 101.37C85.939 101.408 87.1242 101.297 87.6934 101.609C87.9333 101.741 87.8742 101.675 87.9448 101.965C88.2428 103.188 87.2546 105.433 86.565 106.45C85.4295 108.126 83.5124 109.201 81.5489 109.557C79.1924 109.985 76.0045 109.619 74.0183 108.188C71.7601 106.56 70.635 104.583 70.201 101.851C69.696 98.6712 70.0413 95.07 72.0308 92.4383C73.716 90.209 75.8213 89.4588 78.4717 89.0833Z"/>
	<path fill="#252324" d="M107.437 62.5479L108.572 62.5106C111.058 62.4609 113.406 63.0035 115.218 64.7953C116.376 65.9405 117.306 67.5913 117.327 69.25L116.952 69.625C116.111 69.6735 115.003 69.9262 114.316 69.4536L114.244 69.0738C114.006 68.0058 113.252 66.5089 112.289 65.9393C110.855 65.0918 109.004 64.7587 107.401 65.2261C105.648 65.7368 104.248 66.7628 103.386 68.3956C102.11 70.8146 102.003 73.7354 102.865 76.3077C103.366 77.8 104.714 79.5566 106.168 80.2188L106.434 80.3359C106.73 80.4707 107.001 80.5915 107.325 80.6484C109.135 80.9666 110.73 80.7491 112.228 79.6989C113.416 78.4169 114 77.5811 114.248 75.8353C114.293 75.5238 114.428 75.4412 114.625 75.203L117.677 75.2861C117.321 76.7432 116.962 78.1239 116.216 79.4415C115.117 81.3811 113.295 82.5793 111.144 83.1103C108.774 83.6953 105.714 83.2046 103.648 81.9527C101.355 80.563 100.191 78.4418 99.5545 75.9147C98.7898 72.8793 99.3093 69.3302 100.943 66.6591C102.412 64.2577 104.814 63.1699 107.437 62.5479Z"/>
	<path fill="#252324" d="M160.149 62.5459C162.451 62.4459 164.907 62.4901 166.89 63.8336C169.084 65.3193 169.754 67.207 170.232 69.6971C169.31 69.7306 167.978 69.9735 167.174 69.5598C167.07 69.0362 166.897 68.5563 166.677 68.0709C166.055 66.6936 165.104 65.8212 163.676 65.3187C162.182 64.7928 160.342 64.937 158.925 65.6472C157.32 66.4516 156.268 67.8299 155.68 69.4966C154.873 71.7811 155.023 75.0042 156.07 77.1824C156.808 78.7198 158.065 79.9558 159.711 80.4816C161.701 81.1177 163.46 80.6791 165.226 79.7302C165.706 79.0423 166.249 78.3309 166.573 77.5539C166.902 76.7625 166.913 75.8503 167.5 75.2345L170.417 75.2906C170.125 76.5591 169.838 77.8626 169.244 79.0301C168.178 81.1234 166.56 82.3483 164.341 83.0416C162.121 83.7354 158.835 83.2626 156.809 82.1879C154.647 81.041 153.202 79.0224 152.547 76.6937C151.677 73.6043 151.934 69.6597 153.583 66.8716C155.088 64.3268 157.404 63.2619 160.149 62.5459Z"/>
	<path fill="#252324" d="M138.209 62.5457C140.674 62.4533 142.764 62.7133 144.845 64.1292C145.941 64.8746 146.637 66.0759 146.869 67.375C146.982 68.0129 147.071 68.3704 146.689 68.9229C145.912 68.972 144.787 69.2179 144.125 68.7641C143.816 67.9206 143.421 66.852 142.821 66.1789C142.075 65.3421 140.576 65.0355 139.505 65.0064C138.318 64.9741 136.798 65.3547 135.933 66.2162C135.283 66.8629 135.267 67.3916 135.25 68.25C136.604 71.2612 142.994 71.4496 145.75 73.2962C146.801 74.0005 147.572 74.9501 147.786 76.2231L147.935 77.5004C147.961 78.8798 147.303 80.3657 146.31 81.3127C144.522 83.0178 141.788 83.3037 139.444 83.3039C137.663 83.3051 135.461 82.8213 134.002 81.7592C131.959 80.271 131.655 78.385 131.28 76.0575C132.234 76.0266 133.49 75.8417 134.375 76.1925L134.471 76.7275C134.78 78.0583 135.285 79.2165 136.505 79.9401C138.195 80.9423 140.676 80.9982 142.528 80.4459C143.283 80.2207 144.173 79.7065 144.529 78.9663C144.823 78.3552 144.78 77.3892 144.493 76.7768C143.465 74.5814 137.659 73.6371 135.527 72.737C134.326 72.23 133.001 71.2785 132.528 70.013L132.201 68.9794C131.88 67.6248 132.046 66.365 132.823 65.1949C133.95 63.4969 136.335 62.9027 138.209 62.5457Z"/>
	<path fill="#252324" d="M112.043 89.4594L119.01 89.4998C120.239 89.5028 121.654 89.3776 122.827 89.7431C124.293 90.1995 125.746 90.9494 126.451 92.3893C127.12 93.7552 127.229 95.8539 126.726 97.2828C126.13 98.9762 124.751 99.7687 123.22 100.513L127.83 109.232L124.375 109.222L123.875 108.44L120.005 100.992L114.981 101.007L114.964 106.535C114.961 107.479 115.148 108.459 114.625 109.256C113.789 109.269 112.91 109.436 112.164 109.047C111.88 106.823 112.052 104.452 112.049 102.203L112.043 89.4594Z"/>
	<path fill="#FEFEFE" d="M115.005 91.999C117.299 91.9439 120.66 91.5433 122.66 92.8085C123.373 93.2594 123.815 94.2901 123.94 95.0965C124.08 95.9962 123.476 96.7371 122.98 97.4213C121.152 98.7995 117.337 98.2667 115.105 98.2423C114.863 97.73 114.972 96.9289 114.974 96.3612L115.005 91.999Z"/>
	<path fill="#252324" d="M206.774 89.4653C211.003 89.645 216.669 88.4962 220.125 91.4704C221.741 92.8611 223.092 94.9449 223.233 97.125C223.481 100.948 223.286 103.795 220.681 106.747C217.035 110.147 211.347 109.277 206.757 109.251L206.774 89.4653Z"/>
	<path fill="#FEFEFE" d="M209.764 91.9879C212.04 91.9731 215.42 91.6307 217.375 93.0575C218.923 94.187 219.968 95.8484 220.22 97.75C220.585 100.513 219.997 102.695 218.308 104.909C215.747 106.908 212.876 106.755 209.774 106.802L209.764 91.9879Z"/>
	<path fill="#252324" d="M182.685 62.5585C185.509 62.3637 187.992 62.7249 190.375 64.3685C191.853 65.3881 193.186 67.4196 193.53 69.1831L193.685 69.9179C194.351 72.915 194.12 76.6497 192.375 79.2627C190.755 81.6884 188.563 82.6764 185.805 83.2377C183.631 83.4751 181.115 83.2015 179.212 82.071C176.883 80.6882 175.609 78.6318 174.962 76.04C174.203 73.0019 174.476 69.3826 176.188 66.6962C177.747 64.2506 179.931 63.1568 182.685 62.5585Z"/>
	<path fill="#FEFEFE" d="M183.184 65.0295C184.544 64.9591 185.594 65.0304 186.861 65.5502C188.264 66.1254 189.627 67.5481 190.2 68.9535C191.293 71.6359 191.196 74.7496 189.947 77.3593C189.073 79.1866 187.511 80.0834 185.685 80.7227C184.631 80.7628 183.542 80.8132 182.506 80.5777C181.08 80.2536 179.671 79.0846 178.938 77.8353C177.817 75.9247 177.25 72.8096 177.903 70.6577C178.124 69.9286 178.342 69.1983 178.682 68.5137C179.712 66.442 181.075 65.7427 183.184 65.0295Z"/>
	<path fill="#989697" d="M71.2662 192.496L229.752 192.511L229.73 196.227L71.2639 196.243L71.2662 192.496Z"/>
	<path fill="#252324" d="M125.294 133.844C129.787 133.446 135.249 134.625 138.951 137.228C143.457 140.397 145.248 144.699 146.152 149.959L139.358 149.956C138.805 147.549 138.174 145.376 136.545 143.457C134.688 141.268 131.785 139.524 128.875 139.3C124.569 138.969 120.567 139.616 117.185 142.504C113.671 145.505 111.597 150.676 111.31 155.25C110.96 160.81 111.842 166.986 115.66 171.303C118.272 174.257 121.904 176.092 125.878 176.28C129.752 176.463 132.863 175.123 135.648 172.53C138.146 169.809 138.925 166.754 139.556 163.239L146.297 163.277C145.987 164.568 145.916 165.916 145.604 167.219C145.027 169.622 143.856 172.208 142.381 174.194C139.323 178.312 135.116 180.642 130.074 181.38C124.175 182.245 117.518 180.8 112.75 177.229C107.908 173.603 105.425 167.894 104.636 162.018C103.727 155.253 105.123 147.25 109.398 141.816C113.496 136.606 118.921 134.598 125.294 133.844Z"/>
	<path fill="#252324" d="M78.7813 133.848C83.1071 133.408 88.7506 134.642 92.3183 137.129C96.8736 140.304 98.6597 144.641 99.6196 149.901L92.6637 149.97C92.409 147.25 91.4312 144.907 89.5536 142.892C87.5037 140.691 84.4072 139.367 81.4234 139.264C77.0591 139.113 73.3282 139.932 70.0681 143.041C66.806 146.153 64.866 151.265 64.737 155.754C64.57 161.562 65.3933 167.434 69.571 171.821C72.1754 174.556 76.0779 176.227 79.8559 176.288C83.5974 176.348 86.5972 174.972 89.2792 172.377C91.5521 169.508 92.4441 166.831 92.8885 163.254L99.5773 163.293C99.4847 167.189 98.0831 171.231 95.7286 174.356C92.8163 178.221 88.3644 180.804 83.5481 181.386C77.4618 182.121 70.6708 180.804 65.8042 176.949C62.2226 174.112 59.7184 169.788 58.7034 165.344C58.2054 163.164 58.0749 160.827 57.8199 158.601C57.6601 157.206 57.9016 155.593 58.0843 154.205C58.6847 149.645 60.0508 145.289 62.9631 141.656C67.1002 136.496 72.4165 134.577 78.7813 133.848Z"/>
	<path fill="#989697" d="M44.5134 119.49L255.75 119.509L255.724 123.225L44.5017 123.234L44.5134 119.49Z"/>
	<path fill="#252324" d="M153.515 135.02L162.571 135.049L184.546 172.083L184.522 135.028L190.503 135.043L190.494 169.949C190.494 171.811 190.889 179.312 190.243 180.436L189.313 180.493L182.251 180.464L159.213 142.022L159.245 180.488L153.503 180.485L153.515 135.02Z"/>
	<path fill="#252324" d="M214.213 135.02L221.836 135.017L240.043 180.487L232.854 180.509L228.026 168.465L221.375 168.481L206.928 168.458L202.042 180.511L195.351 180.486C195.271 180.022 195.764 179.161 195.958 178.696L198.531 172.602L208.943 147.949C210.668 143.873 213.025 139.473 214.162 135.215L214.213 135.02Z"/>
	<path fill="#FEFEFE" d="M217.372 142.375L217.741 142.298C218.25 142.781 218.421 143.567 218.681 144.205L220.433 148.676L225.836 162.734L218.125 162.752L209.262 162.761L217.372 142.375Z"/>
	<path fill="#2F6883" d="M263.243 55.9665C264.856 56.8863 266.368 58.2162 267.661 59.5432C276.492 68.6098 279.224 81.8231 279.466 94.0557C279.506 96.078 279.286 98.2063 279.253 100.25C279.169 105.556 278.576 111.013 277.949 116.281C274.75 143.148 265.325 169.629 249.737 191.84C243.978 200.046 237.529 207.24 230.331 214.195L224.5 219.211L224.296 219C224.741 218.095 225.591 217.31 226.256 216.556L230.041 212.17C234.089 207.09 237.976 201.879 241.485 196.408C262.374 163.838 271.507 124.992 268.209 86.4828C267.323 76.1444 265.444 66.0871 263.243 55.9665Z"/>
	<path fill="#2F6883" d="M36.1388 56.375L36.6507 56.5529L32.6572 78.602C27.4659 119.987 36.2196 162.099 59.031 197.174C62.5434 202.575 66.3799 207.775 70.4541 212.765L76.2516 219.547C75.3535 219.256 74.7275 218.552 74.0334 217.947L69.9724 214.439C68.2957 213.061 66.7766 211.399 65.2374 209.869C59.8423 204.505 55.0782 198.57 50.6666 192.379C33.0043 167.592 23.6001 137.868 21.2248 107.713C20.5583 99.2512 20.168 90.8318 21.5994 82.421C23.2812 72.5383 27.7586 62.3308 36.1388 56.375Z"/>
	<path fill="#2F6883" d="M287.804 99.4285C290.095 101.553 291.845 104.885 293.112 107.697C300.586 124.269 293.943 144.607 287.857 160.596C274.633 195.333 248.867 225.885 214.637 241.256C212.263 242.224 209.924 243.294 207.433 243.922L217.943 237.3C225.537 232.105 232.735 226.253 239.32 219.823C271.398 188.499 287.29 143.73 287.804 99.4285Z"/>
	<path fill="#2F6883" d="M11.5607 100.125C11.8289 100.057 11.952 100.082 12.2199 100.125L12.7782 113.106C16.4852 155.805 34.2606 196.806 66.747 225.421C72.4218 230.419 78.4331 234.83 84.691 239.067C87.144 240.727 90.2215 242.14 92.4535 244.015L85.9196 241.54C75.3112 236.847 65.6598 230.645 56.6442 223.365C33.3974 204.593 16.759 177.542 8.17774 149.091C6.27975 142.798 4.52695 136.484 3.87303 129.921C2.83262 119.478 4.80513 108.41 11.5607 100.125Z"/>
</svg>
