<svg
   style="background-color:white"
   version="1.1"
   id="svg1"
   width="682.66669"
   height="682.66669"
   viewBox="0 0 682.66669 682.66669"
   sodipodi:docname="Maxbo-512x512.svg"
   inkscape:version="1.3.2 (091e20e, 2023-11-25, custom)"
   xmlns:inkscape="http://www.inkscape.org/namespaces/inkscape"
   xmlns:sodipodi="http://sodipodi.sourceforge.net/DTD/sodipodi-0.dtd"
   xmlns="http://www.w3.org/2000/svg"
   xmlns:svg="http://www.w3.org/2000/svg"
   >
  <defs
     id="defs1" />
  <sodipodi:namedview
     id="namedview1"
     pagecolor="#ffffff"
     bordercolor="#000000"
     borderopacity="0.25"
     inkscape:showpageshadow="2"
     inkscape:pageopacity="0.0"
     inkscape:pagecheckerboard="0"
     inkscape:deskcolor="#d1d1d1"
     inkscape:zoom="1.2026367"
     inkscape:cx="340.91759"
     inkscape:cy="341.33334"
     inkscape:window-width="1920"
     inkscape:window-height="1017"
     inkscape:window-x="-8"
     inkscape:window-y="-8"
     inkscape:window-maximized="1"
     inkscape:current-layer="g1" />
  <g
     inkscape:groupmode="layer"
     inkscape:label="Image"
     id="g1">
    <path
       style="display:inline;opacity:1;mix-blend-mode:lighten;fill:#004976;fill-opacity:1"
       d="M 0,341.33334 V 0 H 341.33334 682.66669 V 341.33334 682.66669 H 341.33334 0 Z m 214.23783,146.95993 c 0.91985,-0.58502 2.73068,-10.93999 4.36833,-24.97958 1.53844,-13.18919 3.97186,-33.88034 5.40759,-45.98034 1.43573,-12.1 4.14677,-35.80001 6.02452,-52.66667 4.47299,-40.17812 4.56477,-40.39047 10.22892,-23.66667 4.2319,12.495 18.3797,52.91627 23.68392,67.66667 2.10964,5.86667 9.07732,25.66667 15.48373,44 6.40641,18.33333 12.22785,34.08333 12.93652,35 1.43839,1.86055 94.98097,2.47863 97.80507,0.64625 0.83036,-0.53877 2.44368,-3.67958 3.58517,-6.97958 1.14148,-3.3 7.26017,-20.7 13.59708,-38.66667 22.30746,-63.24705 28.92869,-82.15109 34.2474,-97.77857 2.95357,-8.67822 5.86295,-15.27822 6.4653,-14.66667 0.96231,0.97701 13.70877,103.98135 17.54464,141.77857 0.78144,7.7 2.01098,14.75 2.73232,15.66667 1.48664,1.8892 117.63615,2.51584 118.79491,0.64092 0.34868,-0.56417 -4.38598,-24.11417 -10.52146,-52.33334 -17.25939,-79.38188 -21.2485,-97.757 -30.09795,-138.64092 -4.52387,-20.9 -10.7416,-49.4 -13.81717,-63.33333 l -5.59197,-25.33334 -64.9534,-0.34605 -64.9534,-0.34606 -1.9044,4.55789 c -1.77754,4.25424 -24.06078,64.26295 -32.72719,88.13423 -14.2285,39.19184 -19.68766,53.25934 -20.81397,53.63478 -0.70709,0.23569 -4.94515,-9.63571 -9.41792,-21.93646 -4.47278,-12.30074 -14.2537,-38.86499 -21.7354,-59.03166 -7.48169,-20.16667 -15.64279,-42.32131 -18.13578,-49.23254 -2.49298,-6.91123 -5.19279,-13.36123 -5.99956,-14.33334 -1.18108,-1.42311 -14.02363,-1.76745 -65.91887,-1.76745 h -64.45202 l -1.30355,5 c -0.71695,2.75 -2.27296,9.8 -3.45779,15.66666 -1.18484,5.86667 -9.65054,45.76667 -18.81267,88.66667 -9.16213,42.9 -21.07712,98.69164 -26.47776,123.98142 -5.40064,25.28978 -9.53606,46.43978 -9.189824,47 0.814693,1.31821 115.303134,1.29724 117.376634,-0.0215 z"
       id="path2451"
       inkscape:label="path2451" />
  </g>
</svg>